<svg width="212" height="48" viewBox="0 0 212 48" fill="none" xmlns="http://www.w3.org/2000/svg" role="img" aria-label="CareerByteCode">
  <defs><linearGradient id="cbcg" x1="0" y1="0" x2="1" y2="1"><stop offset="0" stop-color="#818cf8"/><stop offset="1" stop-color="#4f7cff"/></linearGradient></defs>
  <g transform="translate(2,6)">
    <rect x="0" y="2" width="36" height="34" rx="8" fill="url(#cbcg)"/>
    <path d="M8 12h9v14H8a2 2 0 0 1-2-2V14a2 2 0 0 1 2-2Z" fill="#0a0b12" opacity=".92"/>
    <path d="M28 12h-9v14h9a2 2 0 0 0 2-2V14a2 2 0 0 0-2-2Z" fill="#0a0b12" opacity=".72"/>
    <path d="M18 11.4c1.6-1.2 4-1.4 6-1v14.2c-2-.4-4.4-.2-6 1Z" fill="#0a0b12" opacity=".5"/>
    <rect x="24.5" y="7" width="3.2" height="12" rx="1.6" transform="rotate(38 24.5 7)" fill="#0a0b12"/>
  </g>
  <text x="46" y="22" font-family="Inter, sans-serif" font-weight="800" font-size="17" fill="#eef1f8" letter-spacing="-.3">CareerByteCode</text>
  <text x="46" y="37" font-family="'JetBrains Mono', monospace" font-weight="500" font-size="8" fill="#7c9cff" letter-spacing="2.1">LEARNING MADE SIMPLE</text>
</svg>
